<svg width="24" height="24" viewBox="0 0 24 24" fill="none" xmlns="http://www.w3.org/2000/svg">
<path d="M12 16.5C12.8239 16.5 13.5 17.1761 13.5 18C13.5 18.8239 12.8239 19.5 12 19.5C11.1761 19.5 10.5 18.8239 10.5 18C10.5 17.1761 11.1761 16.5 12 16.5ZM12 10.5C12.8239 10.5 13.5 11.1761 13.5 12C13.5 12.8239 12.8239 13.5 12 13.5C11.1761 13.5 10.5 12.8239 10.5 12C10.5 11.1761 11.1761 10.5 12 10.5ZM12 4.5C12.8239 4.5 13.5 5.17614 13.5 6C13.5 6.82386 12.8239 7.5 12 7.5C11.1761 7.5 10.5 6.82386 10.5 6C10.5 5.17614 11.1761 4.5 12 4.5Z" fill="currentColor" stroke="currentColor"/>
</svg>
