<svg width="128" height="128" viewBox="0 0 128 128" fill="none" xmlns="http://www.w3.org/2000/svg">
<path d="M57.1094 13.5H17.3047C12.0718 13.5001 7.82413 17.732 7.80469 22.9648L7.53711 94.9648C7.51764 100.225 11.7767 104.5 17.0371 104.5H111C116.247 104.5 120.5 100.247 120.5 95V36.5L120.487 36.0107C120.233 30.9914 116.083 27 111 27H76.5635C72.8968 27 69.4954 25.0873 67.5908 21.9541L65.2275 18.0654C63.5043 15.2306 60.4269 13.5 57.1094 13.5Z" fill="#FFEFB3" stroke="#FEC84B"/>
<path d="M118 40.7663C118 35.2435 113.523 30.7663 108 30.7663H76.193C72.7037 30.7663 69.4668 28.9476 67.652 25.9675L65.7224 22.7989C63.9076 19.8187 60.6707 18 57.1815 18H20.2868C14.7785 18 10.3073 22.4545 10.2868 27.9628L10.0374 94.9628C10.0168 100.5 14.4999 105 20.0373 105H108C113.523 105 118 100.523 118 95V40.7663Z" fill="#FFFCF2"/>
<path d="M65.1094 32.5H24.2646C19.4353 32.5 15.3745 36.1237 14.8262 40.9219L8.76953 93.9219C8.12561 99.559 12.5342 104.5 18.208 104.5H112.255C117.012 104.5 121.036 100.981 121.67 96.2656L126.98 56.7656C127.746 51.0673 123.315 46 117.565 46H84.5635C80.8968 46 77.4954 44.0873 75.5908 40.9541L73.2275 37.0654C71.5043 34.2306 68.4269 32.5 65.1094 32.5Z" fill="#FFEFB3" stroke="#FEC84B"/>
</svg>
