<svg width="24" height="24" viewBox="0 0 24 24" fill="none" xmlns="http://www.w3.org/2000/svg">
<path d="M4.5 20.5H19.5V8.5H4.5V20.5ZM14.5 12.5V13.5H9.5V12.5H14.5ZM3.5 7.5H20.5V3.5H3.5V7.5ZM3.5 8.41992L3.26172 8.27344C2.80998 7.99599 2.5 7.52345 2.5 7.00977V4C2.5 3.19198 3.26003 2.5 4 2.5H20C20.74 2.5 21.5 3.19198 21.5 4V7.00977C21.5 7.52345 21.19 7.99599 20.7383 8.27344L20.5 8.41992V20C20.5 20.3797 20.3085 20.7556 19.9961 21.0479C19.6791 21.3443 19.2957 21.5 19 21.5H5C4.70429 21.5 4.32091 21.3443 4.00391 21.0479C3.69153 20.7556 3.5 20.3797 3.5 20V8.41992Z" fill="currentColor" stroke="currentColor"/>
</svg>
