<svg width="24" height="24" viewBox="0 0 24 24" fill="none" xmlns="http://www.w3.org/2000/svg">
<path d="M20.5 18.7344C17.2476 18.8522 14.2905 20.1148 12 22.1055C9.70862 20.1063 6.75166 18.8514 3.5 18.7344V8.73438C6.65001 8.8566 9.50119 10.1289 11.6592 12.1406L12 12.458L12.3408 12.1406C14.4988 10.1289 17.35 8.8566 20.5 8.73438V18.7344ZM4.5 17.7822L4.93359 17.8398C7.38074 18.1687 9.71132 19.1075 11.7031 20.5771L11.999 20.7959L12.2959 20.5771C14.2977 19.1073 16.6188 18.1796 19.0664 17.8506L19.5 17.792V9.80566L18.9111 9.91309C16.7172 10.3101 14.6796 11.323 13.0195 12.8682L13.0186 12.8691L12.001 13.8193L10.9824 12.8604L10.9805 12.8584C9.32036 11.3132 7.2829 10.2994 5.08887 9.90234L4.5 9.7959V17.7822ZM12 1.72461C13.9339 1.72461 15.5 3.29075 15.5 5.22461C15.5 7.15847 13.9339 8.72461 12 8.72461C10.0661 8.72461 8.5 7.15847 8.5 5.22461C8.5 3.29075 10.0661 1.72461 12 1.72461ZM12 2.72461C10.6239 2.72461 9.5 3.84847 9.5 5.22461C9.5 6.60075 10.6239 7.72461 12 7.72461C13.3761 7.72461 14.5 6.60075 14.5 5.22461C14.5 3.84847 13.3761 2.72461 12 2.72461Z" fill="currentColor" stroke="currentColor"/>
</svg>
