<svg width="24" height="24" viewBox="0 0 24 24" fill="none" xmlns="http://www.w3.org/2000/svg">
<path d="M13.4121 20.25C13.2045 20.8304 12.6487 21.25 12 21.25C11.3513 21.25 10.7955 20.8304 10.5879 20.25H13.4121ZM12 2.75C12.5539 2.75 13 3.19614 13 3.75V4.8252L13.3848 4.91699C15.9774 5.53134 17.5 7.85394 17.5 10.75V15.957L19.5 17.957V18.25H4.5V17.957L6.5 15.957V10.75C6.5 7.84541 8.03124 5.53054 10.6152 4.91602L11 4.8252V3.75C11 3.19614 11.4461 2.75 12 2.75ZM12 5.75C10.6081 5.75 9.46841 6.31967 8.68457 7.24707C7.90754 8.16653 7.5 9.4119 7.5 10.75V17.25H16.5V10.75C16.5 9.4119 16.0925 8.16653 15.3154 7.24707C14.5316 6.31967 13.3919 5.75 12 5.75Z" fill="currentColor" stroke="currentColor"/>
</svg>
