<svg width="24" height="24" viewBox="0 0 24 24" fill="none" xmlns="http://www.w3.org/2000/svg">
<path d="M17.5762 14.5859C18.3253 14.7639 19.0778 15.0094 19.7246 15.3232C20.8861 15.8868 21.5 16.556 21.5 17.25V18.5H18.5V17.25C18.5 16.2003 18.1437 15.3189 17.5762 14.5859ZM9 14.25C10.1077 14.25 11.7943 14.5313 13.1914 15.0908C13.8896 15.3704 14.4846 15.7074 14.8965 16.0879C15.3045 16.465 15.5 16.851 15.5 17.25V18.5H2.5V17.25C2.5 16.851 2.69545 16.465 3.10352 16.0879C3.51537 15.7074 4.11042 15.3704 4.80859 15.0908C6.20572 14.5313 7.89233 14.25 9 14.25ZM9 15.25C8.04766 15.25 7.0453 15.4272 6.17578 15.6768C5.31371 15.9242 4.53834 16.2556 4.05566 16.5889L2.73633 17.5H15.2637L13.9443 16.5889C13.4617 16.2556 12.6863 15.9242 11.8242 15.6768C10.9547 15.4272 9.95234 15.25 9 15.25ZM9 5.5C10.6539 5.5 12 6.84614 12 8.5C12 10.1539 10.6539 11.5 9 11.5C7.34614 11.5 6 10.1539 6 8.5C6 6.84614 7.34614 5.5 9 5.5ZM15 5.5C16.6539 5.5 18 6.84614 18 8.5C18 10.1539 16.6539 11.5 15 11.5C14.7396 11.5 14.4895 11.4625 14.248 11.3965C14.7264 10.5377 15 9.54829 15 8.5C15 7.45141 14.7266 6.46146 14.248 5.60254C14.4895 5.53655 14.7397 5.5 15 5.5ZM9 6.5C7.89386 6.5 7 7.39386 7 8.5C7 9.60614 7.89386 10.5 9 10.5C10.1061 10.5 11 9.60614 11 8.5C11 7.39386 10.1061 6.5 9 6.5Z" fill="currentColor" stroke="currentColor"/>
</svg>
