<svg width="24" height="24" viewBox="0 0 24 24" fill="none" xmlns="http://www.w3.org/2000/svg">
<path d="M17 19.5C17.9185 19.5 18.7906 19.6945 19.5801 20.0381L19.582 20.0391C20.1409 20.2809 20.4999 20.8219 20.5 21.4297V21.5H13.5V21.4297C13.5001 20.8219 13.8591 20.2809 14.418 20.0391L14.4199 20.0381C15.2094 19.6945 16.0815 19.5 17 19.5ZM7 19.5C7.91848 19.5 8.79065 19.6945 9.58008 20.0381L9.58203 20.0391C10.1409 20.2809 10.4999 20.8219 10.5 21.4297V21.5H3.5V21.4297C3.50012 20.8219 3.85911 20.2809 4.41797 20.0391L4.41992 20.0381C5.20935 19.6945 6.08152 19.5 7 19.5ZM7 14.5C7.82386 14.5 8.5 15.1761 8.5 16C8.5 16.8239 7.82386 17.5 7 17.5C6.17614 17.5 5.5 16.8239 5.5 16C5.5 15.1761 6.17614 14.5 7 14.5ZM17 14.5C17.8239 14.5 18.5 15.1761 18.5 16C18.5 16.8239 17.8239 17.5 17 17.5C16.1761 17.5 15.5 16.8239 15.5 16C15.5 15.1761 16.1761 14.5 17 14.5ZM12.25 11.5V13.5H13.793L12 15.293L10.207 13.5H11.75V11.5H12.25ZM18 7.5C18.9185 7.5 19.7906 7.69452 20.5801 8.03809L20.582 8.03906C21.1409 8.28094 21.4999 8.82185 21.5 9.42969V9.5H17.5V9.42969C17.4999 8.76238 17.3112 8.1271 16.9717 7.58594C17.3059 7.5297 17.6486 7.5 18 7.5ZM12 7.5C12.9185 7.5 13.7906 7.69452 14.5801 8.03809L14.582 8.03906C15.1409 8.28094 15.4999 8.82185 15.5 9.42969V9.5H8.5V9.42969C8.50012 8.82185 8.85911 8.28094 9.41797 8.03906L9.41992 8.03809C10.2094 7.69452 11.0815 7.5 12 7.5ZM6 7.5C6.35109 7.5 6.69344 7.5298 7.02734 7.58594C6.68798 8.127 6.50006 8.76256 6.5 9.42969V9.5H2.5V9.42969C2.50012 8.82185 2.85911 8.28094 3.41797 8.03906L3.41992 8.03809C4.20935 7.69452 5.08152 7.5 6 7.5ZM6 2.5C6.82386 2.5 7.5 3.17614 7.5 4C7.5 4.82386 6.82386 5.5 6 5.5C5.17614 5.5 4.5 4.82386 4.5 4C4.5 3.17614 5.17614 2.5 6 2.5ZM12 2.5C12.8239 2.5 13.5 3.17614 13.5 4C13.5 4.82386 12.8239 5.5 12 5.5C11.1761 5.5 10.5 4.82386 10.5 4C10.5 3.17614 11.1761 2.5 12 2.5ZM18 2.5C18.8239 2.5 19.5 3.17614 19.5 4C19.5 4.82386 18.8239 5.5 18 5.5C17.1761 5.5 16.5 4.82386 16.5 4C16.5 3.17614 17.1761 2.5 18 2.5Z" fill="currentColor" stroke="currentColor"/>
</svg>
