<svg width="24" height="24" viewBox="0 0 24 24" fill="none" xmlns="http://www.w3.org/2000/svg">
<path d="M6 13.5C7.92386 13.5 9.5 15.0761 9.5 17C9.5 18.9239 7.92386 20.5 6 20.5C4.07614 20.5 2.5 18.9239 2.5 17C2.5 15.0761 4.07614 13.5 6 13.5ZM18 13.5C19.9239 13.5 21.5 15.0761 21.5 17C21.5 18.9239 19.9239 20.5 18 20.5C16.0761 20.5 14.5 18.9239 14.5 17C14.5 15.0761 16.0761 13.5 18 13.5ZM6 14.5C4.62386 14.5 3.5 15.6239 3.5 17C3.5 18.3761 4.62386 19.5 6 19.5C7.37614 19.5 8.5 18.3761 8.5 17C8.5 15.6239 7.37614 14.5 6 14.5ZM18 14.5C16.6239 14.5 15.5 15.6239 15.5 17C15.5 18.3761 16.6239 19.5 18 19.5C19.3761 19.5 20.5 18.3761 20.5 17C20.5 15.6239 19.3761 14.5 18 14.5ZM12 3.5C13.9239 3.5 15.5 5.07614 15.5 7C15.5 8.92386 13.9239 10.5 12 10.5C10.0761 10.5 8.5 8.92386 8.5 7C8.5 5.07614 10.0761 3.5 12 3.5ZM12 4.5C10.6239 4.5 9.5 5.62386 9.5 7C9.5 8.37614 10.6239 9.5 12 9.5C13.3761 9.5 14.5 8.37614 14.5 7C14.5 5.62386 13.3761 4.5 12 4.5Z" fill="currentColor" stroke="currentColor"/>
</svg>
